<?xml version="1.0" encoding="UTF-8"?>
<svg width="426px" height="118px" viewBox="0 0 426 118" version="1.1" xmlns="http://www.w3.org/2000/svg" xmlns:xlink="http://www.w3.org/1999/xlink">
    <!-- Generator: Sketch 40.3 (33839) - http://www.bohemiancoding.com/sketch -->
    <title>Logo</title>
    <desc>Created with Sketch.</desc>
    <defs>
        <path d="M19.8867188,9.94140625 C46.3867188,-3.30859375 67.8205396,-2.93758496 91.4335938,9.94140625 C115.046648,22.8203975 108,58 108,58 L2,58 C2,58 -6.61328125,23.1914063 19.8867188,9.94140625 Z" id="path-1"></path>
    </defs>
    <g id="Page-1" stroke="none" stroke-width="1" fill="none" fill-rule="evenodd">
        <g id="Logo" transform="translate(0.000000, 1.000000)">
            <text id="BOTMASTER" font-family="HiraMaruProN-W4, Hiragino Maru Gothic ProN" font-size="48" font-weight="normal" fill="#FFFFFF">
                <tspan x="112.4" y="102">BOTMASTER</tspan>
            </text>
            <g id="Robot">
                <g id="head" transform="translate(0.000000, 39.000000)">
                    <use id="Rectangle" fill="#000000" xlink:href="#path-1"></use>
                    <g id="right-eye" transform="translate(66.000000, 21.000000)">
                        <circle id="Oval-2" fill="#FFFFFF" cx="13.5" cy="13.5" r="13.5"></circle>
                        <circle id="Oval-3" fill="#000000" cx="13.5" cy="13.5" r="6.5"></circle>
                    </g>
                    <g id="left-eye" transform="translate(16.000000, 21.000000)">
                        <circle id="Oval-2" fill="#FFFFFF" cx="13.5" cy="13.5" r="13.5"></circle>
                        <circle id="Oval-3" fill="#000000" cx="13.5" cy="13.5" r="6.5"></circle>
                    </g>
                </g>
                <rect id="Rectangle-2" fill="#000000" x="17" y="109" width="77" height="8" rx="4"></rect>
                <rect id="Rectangle-1" fill="#000000" x="9" y="99" width="92" height="8" rx="4"></rect>
                <g id="antena" transform="translate(38.000000, 0.000000)" stroke="#000000">
                    <path d="M12.9133406,13.7560023 C12.9133406,13.7560023 14.7317465,22.3071437 14.7317465,26.2560023 C14.7317465,30.640477 12.9133406,38.7560023 12.9133406,38.7560023" id="Line" stroke-width="7" stroke-linecap="square" transform="translate(13.822544, 26.256002) rotate(-13.000000) translate(-13.822544, -26.256002) "></path>
                    <circle id="Oval-4" fill="#000000" cx="7" cy="7" r="7"></circle>
                </g>
            </g>
        </g>
    </g>
</svg>